<?xml version="1.0" standalone="no"?>
<!DOCTYPE svg PUBLIC "-//W3C//DTD SVG 20010904//EN"
 "http://www.w3.org/TR/2001/REC-SVG-20010904/DTD/svg10.dtd">
<svg version="1.0" xmlns="http://www.w3.org/2000/svg"
 width="196.000000pt" height="195.000000pt" viewBox="0 0 196.000000 195.000000"
 preserveAspectRatio="xMidYMid meet">
<metadata>
Created by potrace 1.16, written by Peter Selinger 2001-2019
</metadata>
<g transform="translate(0.000000,195.000000) scale(0.100000,-0.100000)"
fill="#000000" stroke="none">
<path d="M1272 1938 c-15 -15 -15 -43 -2 -68 7 -14 5 -19 -10 -23 -14 -4 -20
-14 -20 -35 0 -17 5 -34 11 -37 7 -5 3 -15 -11 -30 -21 -22 -21 -24 -5 -54 20
-40 82 -85 145 -106 39 -13 49 -21 53 -44 11 -53 96 -62 112 -12 7 22 18 26
100 36 92 12 166 73 134 111 -9 11 -9 18 4 32 24 27 26 72 3 72 -11 0 -9 9 7
40 20 36 21 40 6 56 -53 53 -245 -104 -276 -226 -15 -58 -37 -44 -46 29 -10
81 -49 162 -108 223 -45 48 -74 59 -97 36z m77 -64 c44 -37 92 -140 98 -213 5
-48 3 -61 -8 -61 -31 0 -144 66 -158 92 -20 35 -10 44 23 22 39 -25 42 -11 7
29 -28 32 -41 67 -24 67 4 0 17 -10 30 -22 31 -29 40 -16 14 21 -24 34 -39 91
-23 91 6 0 24 -12 41 -26z m411 -49 c0 -8 -18 -32 -40 -53 -44 -42 -44 -59 0
-34 47 27 48 3 3 -37 -51 -43 -54 -53 -13 -38 42 16 50 0 15 -29 -43 -34 -165
-58 -180 -34 -10 16 39 114 81 159 55 61 134 100 134 66z"/>
<path d="M587 1719 c-87 -12 -206 -51 -276 -91 -30 -17 -82 -59 -116 -92 -148
-145 -189 -357 -105 -543 37 -82 103 -150 212 -220 l89 -58 -6 -60 c-4 -33
-13 -98 -20 -145 -8 -52 -9 -89 -3 -95 18 -20 121 48 215 141 51 50 95 89 98
86 3 -3 5 -81 5 -173 0 -144 3 -176 20 -222 23 -61 77 -119 134 -142 126 -53
778 -59 913 -9 56 20 125 97 151 166 61 163 78 542 31 698 -26 87 -104 143
-214 155 l-61 7 -93 140 c-51 77 -95 138 -97 135 -2 -2 -11 -46 -20 -98 -22
-130 -42 -199 -60 -199 -10 0 -14 14 -14 53 -1 187 -149 413 -330 500 -41 20
-102 44 -135 52 -77 20 -231 26 -318 14z m308 -69 c106 -27 187 -75 266 -157
94 -98 158 -239 159 -355 l0 -36 -202 -4 c-193 -4 -206 -5 -259 -29 -122 -57
-169 -133 -177 -282 -4 -85 -5 -88 -26 -83 -18 4 -30 -6 -67 -57 -43 -59 -153
-156 -165 -144 -3 3 -1 40 5 82 6 42 11 97 11 123 0 47 0 47 -58 79 -150 82
-226 164 -263 284 -81 260 102 515 419 584 93 21 266 18 357 -5z m673 -496
l61 -91 75 -5 c62 -4 81 -10 111 -32 46 -35 62 -69 76 -158 15 -98 6 -390 -16
-488 -38 -171 -93 -232 -230 -251 -104 -15 -509 -15 -649 0 -227 25 -266 76
-266 352 l0 146 108 0 c76 -1 124 4 166 17 190 57 315 182 356 354 11 50 13
52 45 52 30 0 34 4 48 48 8 26 21 73 28 105 7 32 15 54 19 50 4 -4 35 -49 68
-99z m-413 -217 c44 -29 82 -62 84 -72 5 -29 -23 -15 -167 83 -108 73 -129 91
-110 94 24 4 64 -17 193 -105z m30 56 c49 -31 92 -58 93 -59 2 -1 0 -9 -5 -18
-7 -12 -29 -1 -123 60 -98 63 -111 74 -85 74 18 0 62 -21 120 -57z m71 27 c43
-30 50 -40 38 -53 -6 -5 -104 51 -128 74 -26 24 51 5 90 -21z m54 15 c0 -13
-4 -14 -20 -5 -11 6 -20 13 -20 15 0 3 9 5 20 5 11 0 20 -7 20 -15z m-237
-123 c70 -47 127 -89 127 -94 0 -28 -44 -9 -171 78 -173 117 -168 112 -149
124 10 6 23 4 40 -7 14 -9 82 -55 153 -101z m-73 -32 c137 -91 166 -120 124
-120 -8 0 -84 46 -169 101 -129 84 -153 104 -144 116 7 7 18 12 25 9 7 -3 81
-50 164 -106z m-88 -26 c73 -48 144 -93 158 -102 l24 -15 -21 -10 c-19 -8 -45
5 -167 83 -81 50 -146 93 -146 95 0 7 12 35 16 35 1 0 63 -39 136 -86z m-44
-54 c54 -34 109 -70 122 -81 l25 -19 -23 0 c-30 0 -252 139 -252 158 0 19 12
14 128 -58z m-45 -42 c45 -28 89 -57 97 -65 12 -11 10 -13 -13 -13 -33 0 -177
94 -177 115 0 8 2 15 6 15 3 0 42 -23 87 -52z m-18 -62 c19 -15 18 -16 -25
-14 -41 3 -45 5 -48 31 -3 28 -3 28 25 13 15 -8 37 -22 48 -30z"/>
<path d="M934 1590 c-11 -4 -27 -22 -34 -40 -14 -33 -16 -33 -76 -9 -40 16
-60 8 -86 -37 -18 -31 -25 -35 -47 -29 -82 20 -83 20 -117 -21 -32 -37 -33
-38 -52 -20 -26 23 -85 19 -90 -6 -3 -14 4 -18 31 -18 19 0 40 -7 47 -15 26
-31 76 -11 93 38 7 20 22 21 66 6 46 -16 76 -5 95 36 19 40 21 40 71 19 46
-19 80 -8 95 32 6 14 19 28 31 31 11 3 19 12 17 21 -4 19 -17 23 -44 12z"/>
<path d="M975 1472 c-11 -2 -34 -20 -51 -39 -29 -35 -31 -35 -67 -24 -46 15
-71 8 -97 -29 -19 -27 -24 -29 -69 -23 -43 5 -51 3 -85 -28 -32 -28 -41 -31
-57 -21 -10 7 -35 12 -54 12 -28 0 -35 -4 -35 -20 0 -16 7 -20 34 -20 19 0 38
-4 41 -10 12 -20 55 -10 90 21 31 28 40 31 76 25 37 -6 44 -3 77 30 34 34 39
36 67 25 53 -19 71 -13 105 29 17 22 38 40 45 40 8 0 16 4 19 9 9 13 -16 28
-39 23z"/>
<path d="M272 1424 c-31 -21 -29 -47 23 -251 47 -186 63 -223 95 -223 30 0 35
40 21 175 -24 249 -31 290 -48 303 -23 17 -64 15 -91 -4z"/>
<path d="M949 1306 c-18 -31 -24 -35 -47 -29 -15 4 -43 8 -62 8 -28 0 -38 -6
-55 -33 -20 -32 -20 -32 -81 -26 -61 6 -61 6 -84 -27 -13 -19 -25 -35 -26 -37
-1 -2 -14 4 -27 13 -31 20 -92 17 -92 -5 0 -9 13 -17 35 -20 19 -4 44 -11 55
-17 26 -14 57 -2 79 32 15 23 23 26 49 22 18 -3 40 -8 50 -12 13 -6 28 4 57
35 37 40 40 41 83 35 57 -9 81 -1 95 29 6 14 21 26 34 28 36 5 29 32 -9 36
-29 3 -36 -2 -54 -32z"/>
<path d="M363 894 c-8 -22 22 -44 59 -44 33 0 46 23 28 45 -17 21 -79 20 -87
-1z"/>
<path d="M1642 953 c-17 -14 -23 -37 -31 -113 -6 -52 -17 -151 -26 -220 -20
-166 -19 -244 1 -264 37 -38 68 -6 100 106 37 124 95 367 101 419 5 41 3 48
-22 67 -34 27 -94 29 -123 5z"/>
<path d="M1394 605 c-20 -30 -33 -31 -76 -5 -45 27 -61 25 -103 -12 l-36 -31
-38 21 c-50 28 -66 28 -103 -3 l-30 -25 -30 25 c-20 17 -40 25 -57 23 -34 -4
-34 -30 0 -39 15 -3 36 -16 48 -28 28 -28 49 -27 83 6 l28 27 44 -22 c57 -29
69 -28 110 8 l34 30 50 -26 c55 -28 81 -24 102 17 8 14 17 18 31 14 24 -8 39
23 18 36 -26 16 -58 9 -75 -16z"/>
<path d="M1353 443 c-9 -16 -18 -29 -19 -31 -1 -1 -23 9 -49 23 -55 29 -76 26
-118 -14 l-28 -26 -39 23 c-49 28 -58 28 -100 -3 l-34 -25 -22 21 c-25 23 -84
31 -91 12 -2 -7 11 -19 29 -28 18 -8 45 -23 60 -32 25 -16 27 -16 67 11 l40
28 34 -21 c46 -28 70 -26 111 9 l34 30 50 -26 c55 -28 81 -24 102 17 8 14 17
18 31 14 24 -8 39 23 18 36 -27 17 -58 9 -76 -18z"/>
<path d="M1362 303 l-20 -28 -46 23 c-59 28 -78 28 -114 -3 -36 -30 -52 -31
-94 -5 -43 26 -48 25 -93 -10 l-37 -30 -31 26 c-21 17 -39 24 -61 22 -38 -4
-43 -31 -6 -36 13 -2 37 -15 53 -28 36 -30 45 -30 91 1 45 30 46 30 90 4 40
-24 61 -20 107 19 l32 26 38 -22 c52 -30 94 -29 115 3 12 18 24 25 43 23 20
-2 26 1 26 17 0 16 -8 21 -36 23 -30 3 -40 -2 -57 -25z"/>
<path d="M1553 290 c-29 -12 -46 -43 -31 -58 20 -20 93 -15 114 9 35 39 -23
74 -83 49z"/>
<path d="M76 464 c-19 -18 -19 -24 -6 -58 8 -21 6 -25 -13 -28 -19 -3 -22 -9
-22 -43 0 -27 -6 -45 -18 -55 -39 -32 15 -117 108 -170 33 -19 55 -38 55 -49
0 -31 30 -61 60 -61 27 0 60 22 60 40 0 5 35 8 78 7 111 -2 195 44 166 90 -9
14 -6 21 13 36 25 20 31 62 11 70 -9 3 -6 12 10 29 25 27 28 48 10 66 -46 46
-231 -64 -289 -172 -34 -65 -55 -62 -51 8 6 96 -44 226 -110 281 -35 29 -41
30 -62 9z m119 -152 c19 -57 30 -172 17 -190 -8 -12 -15 -11 -43 3 -55 28 -98
64 -114 95 -8 16 -15 31 -15 35 0 12 25 3 47 -17 30 -28 29 -11 -2 43 -14 24
-25 47 -25 52 0 17 31 5 46 -18 25 -38 29 -22 9 33 -11 29 -15 57 -11 68 7 17
11 15 41 -19 19 -22 41 -60 50 -85z m345 -26 c0 -8 -20 -29 -45 -47 -25 -18
-45 -34 -45 -37 0 -2 18 -1 40 3 56 9 51 -8 -12 -45 -55 -31 -55 -33 2 -30 31
2 33 0 20 -15 -8 -9 -26 -21 -40 -27 -31 -12 -150 -12 -162 0 -11 11 60 120
103 156 59 50 139 74 139 42z"/>
</g>
</svg>
